<?xml version="1.0" encoding="UTF-8" standalone="no"?> <svg xmlns="http://www.w3.org/2000/svg" viewBox="0 0 501.643 511.987">
  <g id="Layer_x0020_1" transform="translate(-99.178 -94.007)">
    <path id="Path_44" data-name="Path 44" d="M459.488,564.128H343.341a8,8,0,0,1-8-8V143.877a8,8,0,0,1,8-8H459.488a8,8,0,0,1,8,8v412.25A8,8,0,0,1,459.488,564.128Zm-108.148-16H451.493V151.877H351.34V548.128Z" fill-rule="evenodd"/>
    <path id="Path_45" data-name="Path 45" d="M459.488,605.994a7.992,7.992,0,0,1-8-8V102.007a8,8,0,0,1,10.4-7.633l133.331,41.87a8,8,0,0,1,5.606,7.633v412.25a8,8,0,0,1-5.606,7.633l-133.331,41.87a8.1,8.1,0,0,1-2.4.363Zm42.528-222.63a8,8,0,0,1-8-8V327.112a8,8,0,0,1,16,0v48.253A8,8,0,0,1,502.016,383.364Z" fill-rule="evenodd"/>
    <path id="Path_46" data-name="Path 46" d="M225.867,399.338a8,8,0,0,1-5.5-13.812L257.928,350l-37.561-35.524a8,8,0,1,1,10.991-11.624l43.708,41.336a8,8,0,0,1,0,11.624l-43.708,41.341a7.942,7.942,0,0,1-5.491,2.187Z" fill-rule="evenodd"/>
    <path id="Path_47" data-name="Path 47" d="M266.834,358H107.178a8,8,0,0,1,0-16H266.834a8,8,0,0,1,0,16Z" fill-rule="evenodd"/>
  </g>
</svg>
